<svg xmlns="http://www.w3.org/2000/svg" xmlns:xlink="http://www.w3.org/1999/xlink" version="1.1" x="0px" y="0px" viewBox="0 0 100 125" enable-background="new 0 0 100 100" xml:space="preserve"><path fill-rule="evenodd" clip-rule="evenodd" d="M19.308,39.618c0.757,0,1.369-0.175,1.835-0.524  c0.523-0.408,0.785-0.931,0.785-1.572c0-0.698-0.232-1.31-0.698-1.833c-0.408-0.583-0.902-0.873-1.484-0.873  c-0.698,0-1.339,0.233-1.922,0.698c-0.523,0.408-0.786,0.902-0.786,1.484c0,0.698,0.204,1.31,0.612,1.834  C18.057,39.357,18.61,39.618,19.308,39.618z M89.95,64.246c1.955,2.845-0.494,10.009-5.496,10.652  c-0.764-0.115-1.609-0.536-2.184-1.049c-3.639,2.319-5.445,6.726-9.344,8.209c-7.234,2.755-18.348,3.825-20.348,3.144  c-0.881-0.626-1.676-1.618-1.832-2.97c-0.287-2.512,3.107-2.836,4.629-4.54c-3.031-1.517-6.471-3.522-10.652-2.618  c-4.938,1.068-7.057,8.199-9.411,8.901c-3.701,1.104-5.646,1.077-9.893,0.524c-0.715-0.094-1.312-0.673-1.219-1.389  c0.529-4.035,5.307-4.562,7.071-9.437l-0.438-0.96c-5.521-2.76-11.089-9.796-11.09-16.156c-22.79,0.003-7.43-28.463,3.405-28.468  c2.236-4.514,14.105-20.783,13.537-17.292c-0.814,5.01-3.608,11.063-4.805,16.594c2.954-4.862,5.729-9.893,9.083-14.496  c0.865-0.843,1.291-0.357,1.922-0.35c3.109,5.876-4.604,12.424-6.03,23.311c-0.079,0.605,0.472,0.872,0.964,1.233  c0.707,0.518,2.183,0.52,2.183,0.52c3.025-1.209,8.881-3.717,12.051-3.668c10.684,0.166,26.877,7.285,30.303,16.068  c2.531,6.494,1.771,15.643,3.057,16.155C86.245,65.05,88.862,62.663,89.95,64.246z"/><text x="0" y="115" fill="#000000" font-size="4px" font-weight="bold" font-family="'Helvetica Neue', Helvetica, Arial-Unicode, Arial, Sans-serif">Jule Steffen &amp; Matthias Schmidt</text><text x="0" y="119" fill="#000000" font-size="4px" font-weight="bold" font-family="'Helvetica Neue', Helvetica, Arial-Unicode, Arial, Sans-serif">from the Noun Project</text></svg>