<svg xmlns="http://www.w3.org/2000/svg" xmlns:xlink="http://www.w3.org/1999/xlink" version="1.0" x="0px" y="0px" viewBox="0 0 100 125" enable-background="new 0 0 100 100" xml:space="preserve"><path fill-rule="evenodd" clip-rule="evenodd" d="M48.6695366,22.1331024c-6.8111076,0-12.3331528,5.5208378-12.3331528,12.3331032  c0,6.8100128,5.5220451,12.3308601,12.3331528,12.3308601c6.8099403,0,12.3319855-5.5208473,12.3319855-12.3308601  C61.0015221,27.6539402,55.4794769,22.1331024,48.6695366,22.1331024z M51.6336823,95.4849777  c1.9517746-22.255867,26.4421387-42.1990318,26.4421387-61.5509911c0-15.9542713-13.1649399-28.8753014-29.4062843-28.8753014  c-16.2426262,0-29.4075699,12.92103-29.4075699,28.8753014c0,19.3519592,24.7184792,39.2951241,26.5614815,61.5509911H51.6336823z   M48.6695366,14.5434265c11.0042305,0,19.9204979,8.9184761,19.9204979,19.9227791  c0,11.0031319-8.9162674,19.920433-19.9204979,19.920433s-19.9216652-8.9173012-19.9216652-19.920433  C28.7478714,23.4619026,37.6653023,14.5434265,48.6695366,14.5434265z"/><text x="0" y="115" fill="#000000" font-size="5px" font-weight="bold" font-family="'Helvetica Neue', Helvetica, Arial-Unicode, Arial, Sans-serif">Created by Alex Tai</text><text x="0" y="120" fill="#000000" font-size="5px" font-weight="bold" font-family="'Helvetica Neue', Helvetica, Arial-Unicode, Arial, Sans-serif">from the Noun Project</text></svg>