<svg xmlns="http://www.w3.org/2000/svg" xmlns:xlink="http://www.w3.org/1999/xlink" version="1.1" x="0px" y="0px" viewBox="0 0 100 125" enable-background="new 0 0 100 100" xml:space="preserve"><path d="M13.987,63.991h14.962c-0.523,0.971-0.966,2.088-1.32,3.407l-0.047-0.01c0,0-0.843,4.34-0.854,4.717  c-0.075,2.467,0.825,4.795,2.532,6.557c1.708,1.76,4.009,2.729,6.479,2.729h28.525c2.471,0,4.77-0.97,6.471-2.729  c1.703-1.763,2.594-4.091,2.511-6.56c-0.005-0.139-0.063-1.42-0.724-4.129l-0.345-1.418c0,0-0.716-1.806-1.125-2.563h14.962  c2.471,0,4.771-0.97,6.473-2.73c1.701-1.761,2.593-4.091,2.509-6.562c-0.004-0.137-0.063-1.417-0.724-4.127l-0.008,0.002  c-1.615-6.706-5.252-8.528-10.656-11.21l-0.754-0.386c1.334-2.064,2.117-4.516,2.117-7.151c0-7.289-5.931-13.219-13.22-13.219  c-7.29,0-13.22,5.93-13.22,13.219s5.93,13.22,13.22,13.22c3.58,0,6.827-1.437,9.21-3.756l1.35,0.689  c5.371,2.664,8.065,4.002,9.287,10.02l0.008-0.001c0.424,1.899,0.472,2.797,0.472,2.8c0.058,1.672-0.543,3.245-1.69,4.432  c-1.146,1.188-2.699,1.842-4.373,1.842h-17.17c-1.824-1.745-4.164-2.907-6.986-4.307l-0.754-0.387  c1.334-2.063,2.117-4.516,2.117-7.151c0-7.289-5.931-13.219-13.22-13.219s-13.22,5.93-13.22,13.219c0,2.636,0.784,5.086,2.118,7.151  l-0.755,0.387c-2.821,1.399-5.161,2.562-6.985,4.307H13.987c-1.673,0-3.226-0.653-4.373-1.842c-1.147-1.187-1.748-2.76-1.69-4.422  c0-0.012,0.047-0.908,0.472-2.81L8.402,52c1.222-6.018,3.917-7.355,9.288-10.02l1.349-0.689c2.383,2.319,5.63,3.756,9.209,3.756  c7.29,0,13.221-5.931,13.221-13.22s-5.931-13.219-13.221-13.219c-7.288,0-13.219,5.93-13.219,13.219  c0,2.636,0.784,5.087,2.118,7.151l-0.755,0.386c-5.403,2.682-9.041,4.504-10.655,11.21l-0.009-0.002  c-0.658,2.71-0.719,3.99-0.723,4.128c-0.084,2.47,0.807,4.799,2.509,6.561C9.216,63.023,11.516,63.991,13.987,63.991z   M71.751,42.127c-5.681,0-10.3-4.62-10.3-10.3c0-5.679,4.619-10.299,10.3-10.299c5.679,0,10.3,4.62,10.3,10.299  C82.051,37.507,77.43,42.127,71.751,42.127z M50,38.929c5.68,0,10.3,4.62,10.3,10.299S55.68,59.527,50,59.527  c-5.68,0-10.3-4.62-10.3-10.299S44.32,38.929,50,38.929z M39.44,59.381l1.349-0.689c2.384,2.319,5.63,3.757,9.211,3.757  s6.827-1.438,9.211-3.757l1.348,0.689c5.371,2.664,8.067,4.002,9.289,10.02h0.008c0.424,1.897,0.472,2.795,0.472,2.8  c0.057,1.671-0.544,3.245-1.69,4.432c-1.148,1.187-2.701,1.841-4.373,1.841H35.738c-1.673,0-3.229-0.654-4.383-1.843  c-1.152-1.188-1.76-2.765-1.712-4.39c0.002-0.022,0.05-0.57,0.51-2.838l0.002-0.01C31.377,63.382,34.072,62.044,39.44,59.381z   M28.248,21.528c5.681,0,10.301,4.62,10.301,10.299c0,5.68-4.62,10.3-10.301,10.3c-5.678,0-10.299-4.62-10.299-10.3  C17.949,26.148,22.57,21.528,28.248,21.528z"/><text x="0" y="115" fill="#000000" font-size="5px" font-weight="bold" font-family="'Helvetica Neue', Helvetica, Arial-Unicode, Arial, Sans-serif">Created by To Uyen</text><text x="0" y="120" fill="#000000" font-size="5px" font-weight="bold" font-family="'Helvetica Neue', Helvetica, Arial-Unicode, Arial, Sans-serif">from the Noun Project</text></svg>